<svg width="287" height="224" viewBox="0 0 287 224" fill="none" xmlns="http://www.w3.org/2000/svg">
<path d="M188 15.0466C201.351 26.2664 210.559 41.677 213 59.0466C213.086 61.2853 213.122 63.5261 213.12 65.7664C213.122 66.7419 213.122 66.7419 213.123 67.7371C213.124 69.902 213.119 72.0668 213.114 74.2317C213.113 75.7892 213.113 77.3467 213.114 78.9042C213.114 83.1228 213.108 87.3413 213.101 91.5598C213.095 95.972 213.095 100.384 213.093 104.797C213.09 113.147 213.082 121.498 213.072 129.849C213.059 141.137 213.053 152.424 213.048 163.712C213.038 181.49 213.018 199.268 213 217.047C237.42 217.047 261.84 217.047 287 217.047C287 219.027 287 221.007 287 223.047C260.6 223.047 234.2 223.047 207 223.047C206.963 211.575 206.925 200.104 206.887 188.285C206.856 181.007 206.825 173.729 206.791 166.451C206.737 154.905 206.685 143.36 206.654 131.814C206.631 123.404 206.597 114.994 206.551 106.584C206.527 102.135 206.509 97.6865 206.502 93.2376C206.496 89.0408 206.476 84.8443 206.446 80.6477C206.437 79.1164 206.433 77.585 206.435 76.0537C206.451 55.9314 201.47 38.6785 187 24.0466C173.299 12.0374 156.635 6.16262 138.508 7.25755C120.875 9.33898 105.341 17.2789 94 31.0466C85.5021 43.4338 80.9259 56.7842 80.8418 71.8867C80.8368 72.5379 80.8319 73.1891 80.8268 73.86C80.8116 76.0217 80.8031 78.1834 80.7947 80.3452C80.7851 81.9029 80.7751 83.4605 80.7647 85.0182C80.7377 89.2325 80.7167 93.4468 80.6967 97.6612C80.6748 102.071 80.6474 106.48 80.6206 110.89C80.5708 119.234 80.5258 127.577 80.4826 135.921C80.4239 147.201 80.3577 158.48 80.2918 169.76C80.1884 187.522 80.095 205.284 80 223.047C53.6 223.047 27.2 223.047 0 223.047C0 221.067 0 219.087 0 217.047C24.42 217.047 48.84 217.047 74 217.047C73.9536 205.971 73.9072 194.895 73.8594 183.484C73.8389 176.448 73.8195 169.411 73.8047 162.375C73.781 151.218 73.7533 140.061 73.6982 128.904C73.6582 120.776 73.6325 112.649 73.6236 104.521C73.6185 100.224 73.6064 95.9263 73.5771 91.6289C73.5496 87.5708 73.5416 83.5131 73.5476 79.455C73.5465 77.9781 73.5387 76.5012 73.5232 75.0245C73.3069 53.3815 79.9271 34.7276 95.0156 18.9372C120.527 -5.44028 160.22 -5.78823 188 15.0466Z" fill="white"/>
<path d="M174 27.047C185.808 36.0812 193.119 47.5701 195.538 62.3282C195.964 65.7593 196.123 69.0155 196.12 72.4694C196.122 74.3392 196.122 74.3392 196.124 76.2467C196.121 77.6097 196.117 78.9727 196.113 80.3358C196.113 81.7851 196.113 83.2343 196.114 84.6836C196.114 88.6025 196.108 92.5214 196.101 96.4403C196.095 100.542 196.095 104.643 196.093 108.744C196.09 116.504 196.082 124.263 196.072 132.022C196.061 140.859 196.055 149.696 196.05 158.533C196.04 176.704 196.022 194.875 196 213.047C193.69 213.047 191.38 213.047 189 213.047C188.998 212.278 188.995 211.509 188.993 210.717C188.934 191.978 188.858 173.24 188.764 154.501C188.719 145.439 188.68 136.377 188.654 127.316C188.631 119.414 188.597 111.513 188.551 103.612C188.527 99.4308 188.509 95.2499 188.502 91.0688C188.496 87.1273 188.476 83.1861 188.446 79.2446C188.437 77.804 188.433 76.3633 188.435 74.9227C188.446 61.947 186.205 52.8257 179 42.047C178.422 41.1601 177.845 40.2732 177.25 39.3595C168.653 30.5237 156.824 25.0485 144.437 24.797C132.122 24.9797 120.567 29.3983 111.625 37.922C103.102 47.1077 98.9157 57.7685 98.8417 70.3048C98.832 71.5654 98.8222 72.826 98.8121 74.1248C98.8062 75.514 98.8004 76.9031 98.7946 78.2923C98.7851 79.761 98.775 81.2297 98.7646 82.6984C98.7376 86.6794 98.7166 90.6604 98.6966 94.6414C98.6747 98.8041 98.6474 102.967 98.6206 107.129C98.5707 115.009 98.5257 122.889 98.4826 130.769C98.4331 139.741 98.3782 148.713 98.3229 157.685C98.2091 176.139 98.1023 194.593 98 213.047C96.02 213.047 94.04 213.047 92 213.047C91.9063 193.306 91.8359 173.564 91.7927 153.823C91.7721 144.655 91.7441 135.488 91.6982 126.321C91.6582 118.327 91.6325 110.332 91.6236 102.338C91.6184 98.1088 91.6063 93.8798 91.577 89.6507C91.5497 85.6616 91.5416 81.6729 91.5475 77.6837C91.5464 76.2277 91.5386 74.7717 91.5231 73.3159C91.3609 57.2411 96.0098 43.8659 106.961 31.9259C125.262 15.0619 153.505 12.7112 174 27.047Z" fill="white"/>
<path d="M161 41.0467C161.645 41.3973 162.289 41.7479 162.953 42.1092C170.356 46.744 173.972 53.9939 176.357 62.1415C177.497 67.294 177.391 72.4008 177.341 77.6565C177.341 79.4875 177.341 79.4875 177.342 81.3555C177.34 84.6711 177.325 87.9862 177.304 91.3017C177.285 94.7784 177.284 98.255 177.28 101.732C177.271 108.301 177.246 114.87 177.216 121.44C177.182 128.925 177.166 136.41 177.151 143.895C177.12 159.279 177.067 174.663 177 190.047C175.02 190.047 173.04 190.047 171 190.047C170.997 189.431 170.993 188.816 170.99 188.182C170.909 173.183 170.817 158.183 170.713 143.184C170.662 135.93 170.616 128.676 170.578 121.422C170.545 115.097 170.505 108.772 170.457 102.446C170.432 99.0999 170.411 95.7535 170.397 92.4069C170.38 88.6631 170.351 84.9195 170.319 81.1758C170.317 80.0767 170.315 78.9776 170.312 77.8453C170.208 68.256 169.315 59.6211 163 52.0467C156.728 46.1043 150.062 43.5191 141.402 43.7263C135.045 44.574 128.424 47.3704 124 52.0467C120.427 57.6455 117.889 62.461 117.842 69.1909C117.827 70.7873 117.827 70.7873 117.812 72.416C117.806 73.5834 117.801 74.7509 117.795 75.9536C117.785 77.183 117.775 78.4124 117.765 79.6791C117.739 83.0507 117.717 86.4222 117.697 89.7939C117.675 93.3173 117.647 96.8407 117.621 100.364C117.571 107.036 117.526 113.709 117.483 120.381C117.433 127.977 117.378 135.573 117.323 143.169C117.209 158.795 117.102 174.421 117 190.047C115.02 190.047 113.04 190.047 111 190.047C110.822 174.46 110.657 158.874 110.505 143.287C110.435 136.049 110.36 128.811 110.276 121.573C110.203 115.26 110.138 108.948 110.081 102.635C110.051 99.2958 110.016 95.9571 109.974 92.6184C109.928 88.8799 109.895 85.1415 109.865 81.4029C109.848 80.311 109.832 79.2191 109.815 78.0941C109.751 66.4285 110.919 55.8005 118.977 46.8513C130.585 35.7353 146.66 33.0914 161 41.0467Z" fill="white"/>
<path d="M153.938 58.8598C158.665 63.8741 158.278 69.2823 158.227 75.7946C158.227 76.7707 158.228 77.7468 158.228 78.7524C158.227 81.9719 158.211 85.1911 158.195 88.4106C158.192 90.6455 158.189 92.8803 158.187 95.1152C158.179 100.992 158.16 106.87 158.137 112.747C158.117 118.746 158.108 124.745 158.098 130.745C158.076 142.512 158.042 154.28 158 166.047C156.02 166.047 154.04 166.047 152 166.047C151.996 164.831 151.993 163.614 151.989 162.36C151.952 150.898 151.894 139.436 151.816 127.974C151.777 122.081 151.745 116.188 151.729 110.295C151.714 104.608 151.68 98.9219 151.632 93.2355C151.617 91.0654 151.609 88.8953 151.608 86.7251C151.606 83.6867 151.579 80.6493 151.546 77.611C151.551 76.7126 151.556 75.8142 151.561 74.8886C151.493 70.7817 151.314 68.5685 149.154 64.9808C147.099 62.7879 147.099 62.7879 144 62.5473C140.525 63.1265 139.35 63.4213 137 66.0473C136.37 69.209 136.437 72.3526 136.454 75.5676C136.444 76.5434 136.434 77.5191 136.423 78.5245C136.393 81.7549 136.392 84.9847 136.391 88.2153C136.376 90.453 136.359 92.6908 136.341 94.9285C136.297 100.822 136.277 106.716 136.262 112.609C136.242 118.622 136.2 124.634 136.16 130.647C136.085 142.447 136.035 154.247 136 166.047C133.69 166.047 131.38 166.047 129 166.047C128.907 153.278 128.836 140.508 128.793 127.738C128.772 121.808 128.744 115.878 128.698 109.948C128.655 104.223 128.631 98.4978 128.621 92.7723C128.613 90.5907 128.599 88.4091 128.577 86.2275C128.548 83.1659 128.544 80.1052 128.546 77.0434C128.532 76.1464 128.517 75.2495 128.502 74.3253C128.541 68.4632 129.616 63.9177 133 59.0473C139.737 53.8263 146.872 54.4999 153.938 58.8598Z" fill="white"/>
</svg>
